<?xml version="1.0" standalone="no"?>
<!DOCTYPE svg PUBLIC "-//W3C//DTD SVG 20010904//EN"
 "http://www.w3.org/TR/2001/REC-SVG-20010904/DTD/svg10.dtd">
<svg version="1.0" xmlns="http://www.w3.org/2000/svg"
 width="700.000000pt" height="700.000000pt" viewBox="0 0 700.000000 700.000000"
 preserveAspectRatio="xMidYMid meet">
<metadata>
Created by potrace 1.14, written by Peter Selinger 2001-2017
</metadata>
<g transform="translate(0.000000,700.000000) scale(0.100000,-0.100000)"
fill="#000000" stroke="none">
<path d="M1550 5950 c-48 -9 -78 -25 -128 -74 -93 -88 -124 -122 -136 -151 -7
-16 -19 -43 -26 -60 -19 -44 -21 -200 -4 -263 32 -119 96 -190 201 -221 56
-17 97 -20 237 -20 93 -1 171 -3 173 -5 6 -5 -14 -75 -82 -296 -31 -102 -61
-198 -65 -215 -12 -41 -57 -191 -135 -445 -36 -118 -68 -222 -70 -231 -2 -9
-10 -36 -18 -60 -8 -24 -45 -145 -81 -269 -37 -124 -73 -243 -81 -265 -8 -22
-19 -60 -25 -83 l-11 -44 -52 7 c-272 37 -443 23 -657 -52 -183 -64 -366 -186
-527 -350 -55 -55 -63 -68 -63 -102 0 -36 2 -39 48 -58 26 -11 115 -53 199
-93 l151 -73 -54 -71 c-168 -220 -221 -497 -147 -771 69 -259 281 -491 533
-584 129 -48 298 -68 415 -49 28 4 64 10 80 12 141 23 333 129 444 245 121
127 214 307 237 456 3 25 8 45 10 45 4 0 71 -31 234 -108 47 -22 114 -53 150
-70 36 -17 69 -27 73 -23 9 9 12 40 22 181 4 52 9 97 11 99 6 7 2104 7 2115 1
5 -3 13 -42 19 -85 47 -347 308 -642 645 -729 94 -24 132 -29 235 -28 224 1
439 89 604 247 103 99 212 284 232 395 3 14 7 33 10 42 9 29 14 62 19 106 2
24 6 47 10 50 3 3 162 6 353 6 l347 1 1 222 c1 215 -3 260 -41 458 -13 70 -48
186 -82 275 -146 384 -401 664 -728 799 -44 18 -81 34 -82 35 -1 1 183 2 410
2 402 0 413 1 454 22 71 37 73 43 73 253 l0 188 -37 30 c-21 17 -52 34 -70 37
l-32 6 -1 591 c0 568 -1 593 -20 632 -11 22 -36 51 -57 65 l-37 25 -1053 1
-1054 2 -42 -22 c-27 -14 -50 -37 -65 -64 l-24 -42 -1 -593 -2 -592 -515 0
c-477 -1 -518 -2 -553 -19 -20 -10 -47 -33 -60 -50 -21 -30 -22 -38 -25 -350
l-3 -318 89 -87 c49 -47 108 -112 130 -143 217 -298 209 -648 -19 -880 l-66
-68 -64 0 c-95 -1 -488 -1 -531 0 -41 0 -42 2 -53 115 -26 252 -171 521 -402
745 -81 78 -178 163 -216 189 -12 8 -24 18 -27 21 -3 4 -40 32 -82 63 l-77 57
13 38 c7 20 46 138 86 262 40 124 110 340 157 480 46 140 86 271 89 290 18
120 3 234 -41 321 -31 61 -95 147 -123 168 -20 14 -20 15 4 100 34 125 53 223
55 282 l2 51 36 -5 c20 -3 47 -8 61 -12 14 -3 41 -8 60 -11 19 -3 38 -8 41
-10 3 -2 21 -6 40 -9 19 -3 51 -10 72 -16 81 -21 105 -19 132 12 29 35 44 82
51 164 10 96 5 99 -226 146 -107 22 -227 42 -266 44 -49 2 -83 10 -110 26
-154 87 -242 118 -357 125 -145 9 -221 10 -257 4z m4243 -763 c-2 -4 -3 -11
-3 -15 0 -4 -19 -7 -42 -7 -38 1 -44 -2 -48 -23 -3 -14 -3 -46 -2 -73 4 -44 6
-48 30 -47 93 3 239 -59 318 -134 88 -83 129 -169 141 -295 l6 -63 -34 0 c-53
-1 -857 -1 -921 -1 l-58 1 0 43 c0 58 25 150 57 209 72 132 233 229 401 240
34 2 34 1 34 83 0 25 -1 49 -1 54 -1 5 -21 8 -47 7 -43 -2 -61 5 -50 22 6 10
222 9 219 -1z m-4746 -2968 c48 -23 106 -49 128 -59 183 -82 188 -86 200 -151
13 -71 13 -96 0 -161 -44 -217 -284 -331 -490 -233 -96 46 -179 169 -188 277
-12 152 81 302 220 353 21 7 39 14 40 14 1 1 41 -18 90 -40z m4699 -364 c-12
-93 -98 -201 -192 -247 -41 -19 -65 -23 -144 -23 -117 0 -166 20 -244 97 -53
53 -96 139 -96 191 l0 22 341 0 341 0 -6 -40z"/>
</g>
</svg>
